<?xml version="1.0" standalone="no"?>
<!DOCTYPE svg PUBLIC "-//W3C//DTD SVG 20010904//EN"
 "http://www.w3.org/TR/2001/REC-SVG-20010904/DTD/svg10.dtd">
<svg version="1.0" xmlns="http://www.w3.org/2000/svg"
 width="441.000000pt" height="168.000000pt" viewBox="0 0 441.000000 168.000000"
 preserveAspectRatio="xMidYMid meet">

<g transform="translate(0.000000,168.000000) scale(0.100000,-0.100000)"
fill="#000000" stroke="none">
<path d="M1092 1401 c-147 -51 -286 -202 -299 -324 -9 -92 28 -171 137 -290
l50 -55 -32 -51 c-36 -59 -48 -142 -28 -191 17 -42 91 -107 136 -119 88 -25
172 -4 202 49 21 36 33 37 129 5 73 -25 103 -27 103 -6 0 5 -25 20 -56 32
l-57 24 6 125 c4 69 12 235 18 370 6 135 12 246 13 247 1 1 30 8 65 15 77 16
77 34 -1 30 l-57 -4 -19 39 c-25 46 -77 98 -115 112 -43 16 -136 13 -195 -8z
m206 -12 c53 -26 127 -129 92 -129 -5 0 -10 7 -10 15 0 20 -57 83 -94 102 -17
9 -49 20 -71 24 l-40 6 39 2 c23 0 59 -8 84 -20z m-1 -35 c20 -17 46 -43 57
-58 20 -26 20 -28 3 -41 -10 -7 -42 -16 -72 -20 -40 -5 -55 -11 -55 -22 0 -12
12 -14 62 -11 l62 3 1 -50 c0 -102 -16 -582 -22 -622 -5 -42 -6 -43 -42 -43
-31 1 -39 6 -61 41 -14 23 -93 109 -175 193 -176 177 -219 244 -219 336 0 67
27 122 91 191 122 130 281 175 370 103z m-382 -96 c-69 -77 -89 -121 -90 -198
0 -105 30 -155 211 -339 84 -86 164 -171 178 -189 31 -43 42 -100 23 -119 -12
-12 -13 -10 -9 16 7 48 -41 120 -155 232 -220 217 -267 285 -267 389 0 79 23
129 97 207 64 68 73 69 12 1z m471 -44 c4 -15 3 -137 -2 -273 -5 -135 -9 -299
-9 -365 l0 -119 48 -15 c26 -8 47 -19 47 -23 0 -5 -24 0 -52 11 -29 10 -75 26
-103 34 -44 14 -46 15 -13 12 37 -5 37 -4 42 37 3 23 8 132 11 242 3 110 8
260 12 334 l6 134 -64 -6 -64 -5 60 13 c33 7 63 13 67 14 4 1 11 -11 14 -25z
m-285 -601 c141 -147 155 -215 46 -215 -120 0 -209 90 -193 196 7 43 39 106
54 106 5 0 47 -39 93 -87z m-146 26 c-44 -122 7 -209 146 -250 l64 -19 -50 6
c-65 8 -113 33 -158 83 -32 35 -37 48 -37 89 0 41 30 132 44 132 3 0 -1 -19
-9 -41z"/>
<path d="M3025 1401 c-63 -23 -116 -56 -180 -113 -46 -42 -57 -46 -145 -62
-120 -21 -309 -66 -332 -78 -22 -11 -23 -28 -3 -28 20 0 20 0 -19 -90 -44 -99
-115 -313 -152 -454 -20 -79 -30 -104 -36 -90 -4 10 -23 129 -42 264 -20 135
-43 269 -52 299 -37 125 -125 134 -187 18 -32 -62 -32 -212 1 -279 22 -45 51
-66 72 -53 6 3 0 21 -14 43 -50 76 -56 208 -15 288 10 21 17 40 15 42 -3 2
-15 -16 -27 -40 -33 -61 -33 -201 -2 -270 27 -59 12 -64 -19 -5 -18 34 -22 59
-23 132 0 78 4 97 26 140 23 45 29 50 55 47 61 -7 73 -46 129 -426 42 -285 51
-320 82 -324 28 -4 35 11 63 133 32 144 93 339 157 501 l55 141 46 11 c26 6
48 9 50 8 1 -2 -7 -47 -18 -102 -12 -54 -24 -139 -27 -187 -3 -48 -11 -91 -17
-95 -6 -4 -35 -14 -65 -22 -69 -19 -85 -46 -20 -34 89 16 92 15 96 -41 14
-205 80 -321 179 -319 51 1 117 39 110 63 -3 9 -1 23 5 31 8 12 9 9 4 -10 -6
-24 -5 -24 9 -6 21 26 20 36 -3 36 -11 0 -22 -9 -26 -20 -9 -29 -54 -60 -86
-60 -41 0 -85 43 -108 105 -23 62 -47 233 -34 246 4 4 59 19 122 33 62 13 118
29 124 35 17 17 -38 14 -148 -9 -53 -11 -99 -20 -102 -20 -9 0 8 153 29 268
14 79 25 115 37 121 19 10 173 43 177 38 2 -2 -6 -23 -18 -48 -16 -32 -22 -61
-22 -109 1 -82 27 -136 118 -242 l65 -76 -34 -67 c-57 -108 -47 -178 35 -248
92 -79 247 -73 285 11 13 28 35 28 125 -3 86 -29 103 -31 98 -9 -2 9 -27 26
-57 38 l-53 21 6 100 c3 55 11 201 16 324 6 124 12 226 14 228 5 6 249 53 273
53 19 0 22 -7 29 -57 6 -53 2 -247 -13 -595 -5 -132 -4 -148 10 -148 9 0 19
10 22 23 13 61 27 310 29 538 l2 254 105 17 c57 10 153 20 212 24 98 6 129 15
113 31 -3 4 -48 5 -98 4 -100 -2 -256 -23 -513 -71 -89 -16 -165 -30 -169 -30
-11 0 -7 38 5 46 7 4 36 12 66 18 70 14 65 32 -8 28 l-55 -4 -25 49 c-16 32
-41 59 -73 81 -43 28 -56 32 -115 32 -38 -1 -87 -8 -116 -19z m192 -6 c48 -20
71 -41 95 -88 27 -55 16 -57 -16 -3 -31 53 -79 85 -144 96 -46 8 -46 8 -9 9
21 0 54 -6 74 -14z m-21 -21 c38 -18 104 -87 104 -109 0 -15 -8 -18 -89 -32
-25 -5 -47 -15 -49 -22 -4 -12 8 -13 62 -8 65 6 66 6 66 -19 0 -13 -7 -27 -15
-30 -20 -8 -19 -34 1 -34 14 0 15 -11 10 -87 -3 -49 -9 -190 -12 -315 l-6
-228 -37 0 c-33 0 -41 6 -85 64 -26 35 -102 116 -167 179 -176 171 -230 268
-207 370 39 174 290 335 424 271z m-316 -77 c0 -2 -12 -14 -27 -28 l-28 -24
24 28 c23 25 31 32 31 24z m1125 -47 c-126 -11 -314 -41 -321 -51 -3 -5 -5
-107 -4 -227 1 -224 -16 -536 -31 -562 -5 -8 -5 75 -1 185 8 241 9 591 1 599
-3 3 -66 -5 -139 -19 -135 -25 -157 -28 -149 -21 6 6 350 70 479 90 52 8 131
14 175 14 l80 -1 -90 -7z m-691 -26 c9 -25 7 -64 -4 -64 -5 0 -10 14 -10 31
l0 32 -57 -6 c-75 -8 -42 5 58 22 4 1 10 -6 13 -15z m-528 -51 c-34 -69 -40
-115 -22 -176 23 -80 68 -139 217 -287 75 -74 148 -153 162 -175 32 -50 44
-107 25 -123 -11 -9 -13 -5 -10 23 3 25 -3 47 -21 77 -26 44 -132 159 -177
194 -34 26 -160 170 -187 214 -52 85 -51 175 2 261 34 53 39 49 11 -8z m-221
0 c-18 -47 -47 -252 -52 -371 -9 -238 32 -378 122 -418 23 -10 25 -13 10 -14
-34 0 -83 37 -105 79 -27 53 -50 153 -50 219 0 29 -5 62 -10 72 -7 13 -7 21 0
25 5 3 10 30 10 60 0 29 10 106 21 172 12 65 22 132 23 148 1 25 13 40 35 44
2 1 0 -7 -4 -16z m-544 -63 c28 -38 46 -122 89 -416 39 -262 53 -317 65 -258
20 100 74 296 107 394 46 134 117 300 128 300 4 0 -14 -55 -41 -122 -62 -153
-97 -264 -148 -463 -47 -182 -65 -209 -90 -132 -5 17 -28 156 -51 308 -46 316
-59 369 -98 399 -27 22 -27 22 -3 18 13 -1 32 -14 42 -28z m1298 -152 c-4 -89
-10 -238 -14 -329 l-8 -166 52 -19 c28 -10 51 -21 51 -25 0 -4 -24 2 -52 12
-29 10 -75 25 -103 33 -46 14 -47 15 -12 11 24 -2 40 1 42 8 2 7 9 150 14 320
6 169 13 312 16 317 16 27 20 -11 14 -162z m-294 -337 c83 -84 125 -143 125
-177 0 -42 -49 -58 -120 -40 -106 28 -164 110 -141 203 13 50 36 93 50 93 4 0
43 -35 86 -79z m-143 -8 c-15 -56 -15 -67 -2 -104 20 -55 73 -97 152 -120 35
-9 54 -18 42 -18 -41 -2 -125 31 -160 61 -68 60 -79 120 -40 212 23 56 27 41
8 -31z"/>
<path d="M599 1286 c-86 -23 -162 -98 -227 -224 -148 -286 -103 -623 94 -698
130 -50 276 39 374 227 44 84 47 99 26 99 -8 0 -31 -30 -50 -67 -99 -188 -194
-257 -311 -227 -61 15 -120 75 -149 150 -30 79 -33 240 -7 345 28 111 80 215
143 284 61 67 93 85 149 85 35 0 47 -6 81 -40 22 -22 47 -40 54 -40 45 0 -28
94 -84 110 -43 12 -35 12 -93 -4z m121 -23 c31 -21 49 -44 50 -61 0 -7 -14 3
-31 23 -17 19 -45 39 -63 44 -28 8 -29 9 -6 10 14 1 37 -7 50 -16z m-259 -103
c-104 -132 -159 -335 -139 -515 16 -146 76 -233 181 -262 68 -19 69 -31 1 -14
-113 29 -185 123 -203 268 -22 180 46 412 157 535 48 53 50 47 3 -12z m385
-535 c-22 -53 -80 -136 -122 -175 -35 -33 -34 -31 9 24 26 32 63 87 83 122 39
71 52 83 30 29z"/>
<path d="M1585 689 c-10 -16 -4 -18 61 -24 60 -6 92 4 80 24 -9 14 -133 15
-141 0z m108 -6 c-13 -2 -35 -2 -50 0 -16 2 -5 4 22 4 28 0 40 -2 28 -4z"/>
</g>
</svg>
