<?xml version="1.0" standalone="no"?>
<!DOCTYPE svg PUBLIC "-//W3C//DTD SVG 20010904//EN"
 "http://www.w3.org/TR/2001/REC-SVG-20010904/DTD/svg10.dtd">
<svg version="1.0" xmlns="http://www.w3.org/2000/svg"
 width="1314.000000pt" height="195.000000pt" viewBox="0 0 1314.000000 195.000000"
 preserveAspectRatio="xMidYMid meet">

<g transform="translate(0.000000,195.000000) scale(0.100000,-0.100000)"
fill="#000000" stroke="none">
<path d="M8340 1869 c-69 -10 -154 -23 -190 -29 -85 -14 -565 -77 -655 -86
-71 -7 -95 -16 -95 -39 0 -32 95 -25 533 37 144 20 230 29 237 22 5 -5 17 -52
27 -104 15 -79 18 -151 18 -422 0 -179 -2 -329 -6 -332 -3 -3 -50 -12 -105
-20 -458 -69 -700 -170 -770 -321 -45 -96 -24 -185 64 -267 203 -190 488 -180
675 22 96 103 152 229 191 425 l22 110 70 10 c59 9 69 13 69 30 0 18 -6 20
-66 18 l-66 -3 4 163 c5 201 5 202 25 145 22 -64 72 -134 119 -166 21 -15 40
-32 42 -37 3 -6 0 -53 -6 -104 -21 -183 20 -346 105 -414 101 -81 261 -18 387
152 94 127 153 253 196 423 l23 93 1 -87 c2 -180 44 -411 97 -529 133 -295
381 -30 564 601 24 80 45 148 49 152 3 4 6 -213 6 -482 0 -515 1 -530 43 -504
15 10 17 38 20 271 l2 260 68 26 c37 15 78 28 92 29 l25 3 3 -285 c1 -157 5
-291 7 -297 8 -22 44 -15 50 9 2 13 6 143 7 290 2 146 6 269 10 273 11 12 115
-15 177 -46 76 -38 165 -133 209 -222 32 -65 33 -72 31 -170 -3 -111 2 -131
32 -122 19 6 19 3 13 -90 l-7 -97 24 4 c30 4 41 50 41 183 0 55 0 298 0 540
l0 440 37 50 c21 28 50 67 64 88 l25 39 51 -73 c143 -203 262 -520 312 -829
21 -131 33 -156 67 -146 16 5 22 18 26 49 10 81 26 655 26 908 0 219 -2 258
-15 263 -28 10 -44 -5 -49 -47 -3 -23 -8 -197 -11 -387 -3 -190 -8 -356 -12
-369 -5 -19 -17 7 -54 114 -26 76 -73 189 -103 252 -55 113 -163 290 -192 313
-7 7 -14 28 -14 47 0 71 -63 141 -152 169 -80 25 -246 30 -350 10 -147 -28
-299 -85 -375 -142 -17 -13 -34 -24 -36 -24 -2 0 -7 34 -9 76 -5 80 -21 110
-51 98 -20 -7 -20 -10 -43 -159 -58 -391 -252 -935 -382 -1074 -54 -57 -85
-65 -120 -28 -50 53 -100 212 -122 387 -20 170 -8 487 25 612 10 40 10 50 -2
59 -22 19 -49 -15 -67 -86 -9 -35 -16 -76 -16 -90 0 -14 -4 -25 -10 -25 -5 0
-10 20 -10 43 0 120 -76 295 -161 371 -153 139 -392 106 -566 -77 -75 -80
-128 -172 -148 -261 -11 -49 -11 -48 -23 85 -7 75 -19 162 -27 194 -9 32 -14
60 -12 62 3 2 69 15 147 28 132 22 167 36 154 57 -8 12 -75 8 -214 -13z m544
-24 c117 -31 201 -122 253 -278 25 -76 27 -93 27 -247 -1 -145 -4 -177 -27
-262 -44 -166 -131 -330 -230 -436 -50 -53 -130 -112 -151 -112 -5 0 10 13 35
28 131 84 263 304 321 540 33 130 32 357 -1 462 -46 149 -99 222 -193 269 -50
25 -75 31 -132 32 -58 1 -64 3 -36 9 55 12 72 11 134 -5z m-651 -23 c-8 -5 -9
-20 -2 -52 41 -199 42 -214 44 -545 1 -181 -2 -335 -6 -341 -5 -5 -13 -44 -20
-85 -28 -179 -96 -350 -176 -439 -168 -188 -406 -214 -612 -69 -120 84 -158
176 -112 272 21 44 71 100 71 79 0 -6 -5 -14 -10 -17 -21 -13 -50 -86 -50
-125 0 -93 68 -175 200 -239 71 -34 80 -36 175 -36 93 0 105 2 167 33 134 66
231 217 288 450 32 128 36 157 19 167 -6 4 -4 12 8 20 17 12 18 36 18 342 0
227 -4 356 -14 418 -15 101 -34 155 -53 155 -9 0 -9 3 2 10 8 5 29 10 45 10
17 0 25 -4 18 -8z m680 -35 c60 -36 114 -98 147 -171 45 -101 55 -158 54 -311
-2 -157 -24 -263 -85 -410 -66 -158 -202 -328 -285 -355 -77 -26 -143 18 -180
119 -17 50 -31 238 -20 293 l6 33 107 0 c80 0 118 5 146 18 47 20 44 43 -4 40
-167 -10 -229 1 -229 38 0 59 81 244 141 319 38 48 45 80 18 80 -44 0 -167
-196 -205 -327 -19 -64 -30 -62 -83 18 -145 216 -12 547 254 636 62 20 165 11
218 -20z m-805 18 c-12 -12 -571 -86 -638 -84 -19 1 51 12 155 25 105 13 249
32 320 42 145 22 171 24 163 17z m2634 -60 c66 -19 125 -68 134 -110 6 -30 5
-30 -31 13 -43 50 -89 75 -163 91 -74 15 -206 14 -298 -4 -86 -16 -112 -14
-37 4 141 33 294 36 395 6z m-776 -20 c3 -19 4 -68 1 -108 -7 -101 -17 -638
-19 -975 -1 -155 -4 -285 -9 -287 -15 -10 -22 302 -15 693 7 449 3 475 -46
286 -92 -356 -223 -674 -320 -777 -25 -27 -23 -23 10 28 136 206 296 685 347
1037 9 62 18 119 21 126 7 24 23 12 30 -23z m-1447 8 c-8 -10 -30 -36 -48 -57
-19 -22 -50 -74 -70 -115 -35 -74 -36 -80 -36 -191 0 -106 2 -120 28 -172 28
-56 99 -132 119 -126 5 2 20 35 32 73 27 84 80 193 113 232 l24 28 -25 -41
c-32 -53 -68 -140 -95 -228 -26 -85 -26 -82 7 -100 l27 -15 -31 -1 c-30 0 -32
-3 -38 -43 -12 -79 -7 -240 9 -301 30 -113 81 -165 165 -167 40 -1 42 -2 17
-9 -32 -10 -91 4 -129 31 -71 51 -108 213 -89 391 l12 109 -75 72 c-81 79 -92
103 -102 217 -12 133 33 259 131 368 31 34 59 62 62 62 4 0 0 -8 -8 -17z
m2212 -37 c44 -20 49 -25 28 -25 -59 -2 -88 -75 -89 -224 l0 -88 -37 -35 c-85
-78 -359 -264 -389 -264 -11 0 -13 44 -11 233 2 237 -3 301 -27 310 -36 14
-38 -4 -41 -298 -3 -237 -6 -290 -18 -302 -8 -8 -43 -23 -78 -33 -35 -10 -72
-21 -81 -25 -16 -6 -17 -1 -13 66 3 41 8 166 11 279 6 202 7 206 33 245 38 56
91 90 206 131 191 68 396 80 506 30z m-471 9 c-46 -18 -64 -17 -25 0 17 8 37
14 45 14 8 0 -1 -7 -20 -14z m553 -83 c25 -22 13 -27 -18 -6 -16 10 -30 13
-35 8 -13 -13 -30 -106 -30 -159 0 -28 -7 -51 -20 -66 l-19 -24 0 75 c0 172
46 238 122 172z m524 -334 c-8 -474 -26 -808 -44 -808 -7 0 -13 3 -13 8 0 15
-31 199 -41 247 -55 254 -192 576 -315 746 -38 52 -44 71 -14 44 35 -31 119
-172 185 -307 57 -117 127 -310 170 -470 9 -32 19 -58 24 -58 8 0 21 474 21
756 0 150 6 204 23 204 7 0 8 -115 4 -362z m-535 295 c10 -9 18 -21 18 -26 0
-12 -53 -97 -60 -97 -6 0 -1 108 5 128 6 16 15 15 37 -5z m-590 -293 c-2 -246
-1 -270 15 -270 14 0 14 -2 -3 -21 -18 -20 -18 -21 1 -35 10 -8 33 -14 51 -14
44 0 144 -32 198 -64 86 -50 192 -194 184 -248 -3 -19 -10 -11 -38 41 -73 136
-170 209 -323 247 -54 13 -70 14 -82 4 -13 -11 -15 -56 -15 -291 0 -174 -4
-280 -10 -284 -7 -4 -10 91 -10 277 0 295 -2 308 -42 308 -10 0 -51 -11 -90
-25 -82 -29 -78 -28 -78 -17 0 10 59 37 100 47 49 12 99 38 105 54 4 9 8 142
11 296 2 154 4 282 4 285 0 2 5 -1 12 -8 9 -9 12 -82 10 -282z m-937 243 c-17
-46 -35 -245 -35 -403 0 -314 60 -573 147 -639 18 -13 23 -20 13 -21 -67 -1
-138 160 -171 389 -17 120 -7 521 16 619 9 39 21 72 27 72 6 0 7 -8 3 -17z
m1551 -67 c-39 -57 -76 -96 -76 -79 0 5 12 25 26 44 14 19 35 51 46 73 14 28
23 35 31 27 8 -8 0 -25 -27 -65z m-115 -139 c-20 -20 -21 -20 -21 -3 0 11 8
28 18 39 16 18 17 18 20 2 2 -10 -5 -27 -17 -38z m-41 -22 c0 -9 -11 -27 -26
-40 -54 -50 -350 -232 -360 -222 -3 3 17 17 43 32 67 39 217 145 283 199 30
25 56 46 57 46 2 0 3 -7 3 -15z m55 -492 c-4 -95 -11 -173 -15 -173 -22 0 -26
76 -22 345 3 255 6 292 20 303 16 12 17 0 20 -145 2 -87 0 -236 -3 -330z m-57
266 c2 -88 1 -203 -3 -254 l-7 -94 -44 57 c-81 107 -165 155 -329 190 l-40 8
50 29 c122 70 264 156 310 189 27 20 52 36 55 36 3 0 7 -72 8 -161z m-2035
-66 c-7 -2 -19 -2 -25 0 -7 3 -2 5 12 5 14 0 19 -2 13 -5z m-449 -235 c-62
-329 -211 -519 -418 -535 -138 -12 -311 78 -368 191 -53 104 28 221 200 286
108 42 572 146 593 134 4 -2 1 -36 -7 -76z m-301 45 c-7 -2 -19 -2 -25 0 -7 3
-2 5 12 5 14 0 19 -2 13 -5z m-46 -9 c-3 -3 -12 -4 -19 -1 -8 3 -5 6 6 6 11 1
17 -2 13 -5z m2866 -301 c-6 -14 -7 -14 -14 3 -4 10 -7 37 -7 59 l0 40 13 -43
c8 -24 11 -50 8 -59z m-21 -126 c-9 -18 -11 -11 -10 38 0 59 0 60 10 22 7 -27
7 -45 0 -60z m41 -160 c-5 -25 -7 4 -6 85 1 157 6 181 10 53 2 -55 0 -117 -4
-138z"/>
<path d="M1720 1828 c-131 -12 -366 -50 -685 -110 -148 -28 -300 -56 -336 -63
-78 -14 -89 -20 -89 -46 0 -29 34 -25 341 31 150 28 275 47 278 44 17 -17 -3
-994 -25 -1221 -6 -55 -4 -62 14 -72 39 -21 47 5 66 196 31 323 44 942 24
1098 -3 17 10 21 137 42 184 29 386 53 456 53 31 0 71 3 89 6 35 8 51 31 29
45 -17 11 -171 9 -299 -3z m210 -18 c-25 -5 -103 -13 -175 -19 -144 -12 -445
-58 -458 -70 -4 -4 -9 -210 -11 -457 -3 -540 -28 -885 -60 -853 -3 3 -1 59 4
124 25 327 36 1131 15 1165 -10 16 -32 13 -294 -36 -297 -55 -317 -58 -311
-51 11 12 622 127 888 167 139 21 309 37 402 37 l45 1 -45 -8z"/>
<path d="M2910 1783 c-310 -54 -662 -138 -684 -162 -13 -15 -14 -20 -4 -29 9
-7 51 -1 145 21 73 17 135 29 138 26 3 -3 -6 -60 -19 -126 -30 -148 -56 -328
-56 -392 0 -104 1 -103 -111 -129 -101 -24 -140 -45 -120 -65 8 -8 41 -5 115
9 l105 20 6 -75 c23 -281 78 -432 183 -506 38 -26 52 -30 105 -29 103 2 182
51 225 141 11 24 13 36 5 44 -17 17 -50 1 -63 -31 -15 -37 -71 -87 -106 -96
-32 -8 -93 9 -128 37 -66 52 -119 208 -136 400 -6 68 -7 126 -3 130 9 8 129
37 283 69 110 23 135 35 121 59 -8 12 -38 8 -193 -22 -100 -21 -191 -37 -201
-37 -17 0 -18 7 -12 83 10 129 34 304 56 402 11 50 22 99 24 109 3 11 8 23 12
27 5 5 64 20 133 34 284 59 270 55 270 76 0 20 -26 23 -90 12z m-330 -97 c0
-3 -5 -17 -10 -32 -18 -47 -60 -275 -75 -409 -19 -171 -19 -224 0 -231 14 -6
13 -8 -1 -19 -36 -26 4 -343 59 -465 36 -80 73 -118 137 -141 l55 -20 -49 4
c-32 3 -62 15 -90 34 -78 54 -140 222 -152 408 -3 44 -7 100 -10 124 l-6 43
-46 -5 -47 -6 44 12 c27 8 47 20 51 32 4 11 10 67 13 125 7 113 35 291 68 429
19 79 19 86 4 97 -15 11 -15 13 2 17 25 6 53 8 53 3z m340 -1185 c0 -5 -9 -19
-20 -32 l-21 -24 16 33 c15 31 25 41 25 23z"/>
<path d="M5600 1783 c-116 -20 -402 -79 -519 -108 -80 -19 -147 -33 -149 -31
-2 2 4 30 12 62 16 63 14 74 -13 74 -26 0 -35 -14 -64 -100 -60 -175 -90 -324
-177 -872 -33 -207 -65 -389 -71 -405 l-11 -28 -15 34 c-34 81 -98 453 -118
686 -13 149 -41 197 -94 158 -14 -11 -32 -37 -39 -59 -11 -31 -55 -323 -89
-586 -3 -27 -9 -48 -12 -48 -4 0 -19 136 -35 302 -31 340 -58 540 -86 631 -53
170 -151 228 -244 146 -110 -96 -143 -458 -58 -629 31 -63 70 -95 101 -85 25
7 28 43 6 52 -24 9 -62 92 -75 161 -32 177 6 415 75 472 46 38 111 -68 144
-235 20 -97 27 -157 71 -620 25 -249 43 -370 61 -391 13 -16 47 -18 68 -5 20
13 35 94 77 414 21 158 42 287 46 287 5 0 8 -14 8 -30 0 -48 49 -364 75 -485
47 -216 91 -294 150 -267 55 25 77 115 170 702 59 378 108 608 128 606 7 0 69
12 139 28 71 16 130 27 133 24 3 -2 -6 -59 -19 -125 -30 -148 -56 -328 -56
-392 0 -97 -5 -106 -69 -119 -117 -24 -161 -41 -161 -62 0 -25 17 -25 132 -1
l87 18 6 -76 c23 -281 78 -432 183 -506 38 -26 52 -30 105 -29 103 2 182 51
225 141 11 24 13 36 5 44 -17 17 -50 1 -63 -31 -15 -37 -71 -87 -106 -96 -32
-8 -93 9 -128 37 -66 52 -119 208 -136 400 -6 68 -7 126 -3 130 9 8 129 37
283 69 110 23 135 35 121 59 -8 12 -38 8 -193 -22 -100 -21 -191 -37 -201 -37
-17 0 -18 7 -12 83 10 129 34 304 56 402 11 50 22 99 24 109 3 11 8 23 12 27
5 5 64 20 133 34 284 59 270 55 270 76 0 19 -26 23 -90 12z m-670 -38 c0 -3
-22 -92 -49 -198 -32 -124 -68 -305 -101 -512 -99 -622 -112 -686 -150 -720
-44 -40 -78 3 -115 147 -34 136 -73 375 -86 534 -6 77 -17 153 -24 169 l-12
30 -12 -40 c-6 -22 -31 -189 -56 -372 -25 -182 -51 -348 -57 -369 -16 -47 -44
-57 -58 -19 -14 37 -36 214 -65 535 -30 318 -55 483 -89 582 -27 78 -47 104
-91 124 l-30 13 30 0 c40 1 69 -24 98 -84 52 -107 76 -241 112 -630 13 -148
30 -315 36 -370 17 -152 41 -176 54 -55 4 30 24 190 46 355 41 314 55 367 96
373 24 4 24 4 42 -148 6 -47 17 -144 26 -217 21 -173 76 -446 103 -506 44 -98
51 -74 133 438 69 432 90 549 125 690 34 132 75 255 85 255 5 0 9 -2 9 -5z
m340 -59 c0 -3 -5 -17 -10 -32 -18 -47 -60 -275 -75 -409 -19 -171 -19 -224 0
-231 14 -6 13 -8 -1 -19 -36 -26 4 -343 59 -465 36 -80 73 -118 137 -141 l55
-20 -49 4 c-32 3 -62 15 -90 34 -78 54 -140 222 -152 408 -3 44 -7 100 -10
124 l-6 43 -46 -5 -47 -6 44 12 c27 8 47 20 51 32 4 11 10 67 13 125 7 113 35
291 68 429 19 79 19 86 4 97 -15 11 -15 13 2 17 25 6 53 8 53 3z m-1385 -92
c-95 -139 -90 -529 7 -626 18 -18 18 -20 2 -16 -10 2 -29 18 -41 37 -89 132
-79 492 18 615 31 39 42 31 14 -10z m1725 -1093 c0 -5 -9 -19 -20 -32 l-21
-24 16 33 c15 31 25 41 25 23z"/>
<path d="M6200 1783 c-189 -17 -373 -57 -550 -118 -159 -55 -300 -133 -300
-166 0 -20 30 -20 57 -1 172 121 577 226 873 226 145 0 236 -14 272 -44 22
-18 22 -19 4 -38 -23 -26 -138 -86 -281 -147 -193 -82 -478 -195 -482 -191 -2
2 10 61 27 132 30 125 29 151 -3 138 -19 -7 -27 -30 -67 -194 -18 -74 -36
-128 -45 -133 -16 -9 -21 -53 -6 -59 6 -2 4 -42 -4 -103 -47 -330 -40 -662 17
-813 40 -106 107 -150 187 -123 135 47 327 268 458 529 138 274 102 464 -103
544 -58 23 -225 40 -319 32 -44 -4 -78 -4 -75 -2 3 3 104 45 225 93 429 170
575 255 559 323 -9 37 -21 50 -65 73 -55 28 -272 52 -379 42z m255 -33 c147
-21 201 -78 133 -141 -46 -43 -230 -130 -518 -243 -293 -116 -310 -123 -310
-135 0 -6 87 -9 213 -8 202 2 215 1 271 -22 127 -51 171 -124 164 -268 -6
-110 -42 -207 -133 -358 -216 -361 -446 -505 -529 -331 -68 143 -80 478 -30
840 11 76 12 112 5 119 -8 8 -6 16 4 27 8 9 25 56 36 104 12 48 23 85 25 84 2
-2 -2 -34 -8 -70 -7 -37 -9 -71 -5 -75 8 -7 22 -1 375 144 330 135 458 207
450 251 -4 24 -83 61 -154 72 -86 14 -237 12 -370 -5 -64 -9 -119 -13 -122
-10 -3 3 1 5 9 5 8 1 52 7 99 14 102 17 299 19 395 6z"/>
<path d="M5807 1203 c-47 -5 -51 -14 -65 -158 -20 -200 -25 -376 -13 -515 17
-187 35 -255 81 -302 21 -21 47 -38 59 -38 80 0 239 165 367 383 102 173 149
335 126 439 -33 146 -137 199 -381 196 -75 -1 -153 -3 -174 -5z m369 -37 c101
-32 147 -78 166 -168 10 -49 9 -67 -10 -145 -28 -115 -111 -281 -203 -403
-232 -311 -328 -307 -370 15 -14 108 -6 548 11 642 13 68 6 63 105 77 63 9
251 -2 301 -18z"/>
<path d="M12110 1783 c-254 -44 -654 -135 -677 -155 -20 -17 -15 -38 10 -38
12 0 75 12 139 27 65 15 120 24 123 21 3 -2 -6 -59 -19 -125 -30 -148 -56
-328 -56 -392 0 -97 -5 -106 -69 -119 -117 -24 -161 -41 -161 -62 0 -25 17
-25 132 -1 l87 18 6 -76 c23 -281 78 -432 183 -506 38 -26 52 -30 105 -29 103
2 182 51 225 141 11 24 13 36 5 44 -17 17 -50 1 -63 -31 -15 -37 -71 -87 -106
-96 -32 -8 -93 9 -128 37 -66 52 -119 208 -136 400 -6 68 -7 126 -3 130 9 8
90 28 257 64 119 26 135 25 136 -9 0 -23 67 -88 115 -111 41 -20 66 -26 106
-24 l52 3 12 -42 c21 -69 61 -128 101 -147 32 -15 43 -16 77 -5 91 27 195 180
279 410 l39 105 -5 -231 c-3 -127 -8 -238 -11 -245 -3 -8 -28 -29 -56 -48
-142 -96 -244 -299 -224 -440 14 -96 66 -161 129 -161 38 0 105 65 133 129 52
116 92 352 108 621 11 198 23 815 16 865 -6 47 -8 50 -36 50 -36 0 -39 -9 -55
-150 -22 -207 -94 -463 -179 -641 -62 -130 -135 -213 -174 -199 -20 8 -55 75
-62 121 -6 35 -4 41 24 62 49 36 33 70 -26 56 l-26 -7 8 214 c13 356 13 384
-9 408 -12 13 -31 21 -51 21 -115 0 -305 -303 -305 -487 0 -36 -4 -43 -22 -48
-70 -16 -324 -65 -340 -65 -18 0 -19 6 -13 83 10 129 34 304 56 402 11 50 22
99 24 109 3 11 8 23 12 27 5 5 64 20 133 34 284 59 270 55 270 76 0 19 -26 23
-90 12z m840 -175 c-1 -458 -28 -980 -60 -1158 -15 -84 -48 -197 -70 -240 -39
-77 -108 -110 -158 -74 -73 51 -76 200 -7 340 35 71 118 169 165 194 15 8 0
-13 -38 -53 -88 -93 -134 -192 -140 -302 -4 -67 -1 -90 16 -127 61 -139 152
-5 202 297 22 133 25 205 10 205 -6 0 -4 10 4 23 14 22 36 355 36 552 0 77 -2
86 -15 75 -8 -7 -15 -19 -15 -26 0 -8 -20 -74 -44 -146 -93 -283 -207 -448
-310 -448 -46 0 -95 56 -115 130 l-17 65 -64 0 c-53 0 -75 5 -118 29 -59 33
-108 101 -97 135 3 11 1 22 -5 26 -29 18 -2 152 55 270 83 172 209 286 254
231 16 -20 17 -119 3 -322 -11 -157 -9 -275 5 -314 3 -8 7 -36 8 -61 6 -90 56
-169 107 -169 43 0 106 71 166 189 90 176 182 505 198 707 6 76 16 104 35 104
5 0 9 -60 9 -132z m-1170 78 c0 -3 -5 -17 -10 -32 -18 -47 -60 -275 -75 -409
-19 -171 -19 -224 0 -231 14 -6 13 -8 -1 -19 -36 -26 4 -343 59 -465 36 -80
73 -118 137 -141 l55 -20 -49 4 c-32 3 -62 15 -90 34 -78 54 -140 222 -152
408 -3 44 -7 100 -10 124 l-6 43 -46 -5 -47 -6 44 12 c27 8 47 20 51 32 4 11
10 67 13 125 7 113 35 291 68 429 19 79 19 86 4 97 -15 11 -15 13 2 17 25 6
53 8 53 3z m1074 -1083 c-33 -280 -98 -469 -150 -437 -65 39 -53 225 23 347
27 44 112 137 125 137 4 0 5 -21 2 -47z m-734 -102 c0 -5 -9 -19 -20 -32 l-21
-24 16 33 c15 31 25 41 25 23z"/>
<path d="M12304 1548 c-165 -176 -227 -448 -126 -562 40 -45 178 -76 198 -44
4 7 7 75 6 153 -2 77 4 209 12 293 8 84 11 165 7 180 -12 45 -41 39 -97 -20z
m72 -75 c-3 -54 -9 -194 -12 -310 l-7 -213 -34 0 c-70 0 -139 50 -162 119 -39
119 34 336 157 464 58 60 65 53 58 -60z"/>
<path d="M2145 1677 c-16 -25 -33 -226 -52 -627 l-8 -154 -210 -22 c-115 -12
-211 -21 -213 -20 -1 2 2 93 8 202 18 358 12 486 -24 523 -15 14 -18 14 -36
-4 -18 -18 -19 -27 -11 -95 4 -41 4 -169 0 -285 -4 -115 -8 -244 -8 -286 l-1
-75 -70 -22 c-71 -23 -114 -60 -108 -91 5 -24 67 -61 102 -61 64 0 76 44 16
60 -22 6 -40 15 -40 19 0 9 80 32 89 26 3 -1 4 -88 1 -192 -3 -103 -4 -194 -2
-200 6 -19 40 -16 50 5 5 9 13 91 17 182 10 211 10 209 21 220 12 12 219 39
324 42 l85 3 6 -276 c6 -275 16 -349 44 -349 7 0 16 8 20 18 4 9 9 154 10 322
2 168 13 472 25 675 24 415 24 478 -2 483 -9 2 -24 -8 -33 -21z m35 -34 c0
-16 -10 -176 -21 -358 -16 -254 -30 -738 -29 -1045 0 -10 -3 -11 -11 -3 -7 7
-12 110 -15 304 -3 161 -7 296 -10 301 -7 11 -97 10 -204 -2 -170 -18 -208
-20 -170 -11 19 6 112 17 205 27 94 9 173 21 176 26 3 5 9 80 13 166 11 239
35 587 42 605 10 26 24 20 24 -10z m-536 -100 c15 -55 16 -151 6 -409 l-12
-288 22 -18 c22 -18 22 -18 2 -18 -11 0 -23 -8 -26 -17 -3 -10 -8 -99 -12
-198 -10 -255 -25 -265 -21 -15 l2 205 -50 -1 -50 -1 48 14 c27 8 50 20 52 26
9 27 22 607 15 662 -4 33 -5 63 -3 68 7 13 22 7 27 -10z m-171 -815 c13 -13
32 -29 43 -36 18 -11 17 -12 -6 -7 -44 11 -70 28 -70 47 0 23 4 23 33 -4z"/>
<path d="M184 786 c-10 -25 0 -61 18 -64 21 -4 51 39 42 62 -8 20 -53 21 -60
2z m32 -33 c-10 -10 -19 5 -10 18 6 11 8 11 12 0 2 -7 1 -15 -2 -18z"/>
<path d="M354 786 c-10 -25 0 -61 18 -64 21 -4 51 39 42 62 -8 20 -53 21 -60
2z m32 -33 c-10 -10 -19 5 -10 18 6 11 8 11 12 0 2 -7 1 -15 -2 -18z"/>
<path d="M524 775 c-8 -34 1 -55 26 -55 23 0 46 40 37 64 -4 9 -18 16 -31 16
-19 0 -27 -7 -32 -25z m37 -18 c-13 -13 -26 -3 -16 12 3 6 11 8 17 5 6 -4 6
-10 -1 -17z"/>
<path d="M700 785 c-18 -22 -4 -65 20 -65 23 0 46 40 37 64 -8 20 -41 21 -57
1z m40 -14 c0 -12 -20 -25 -27 -18 -7 7 6 27 18 27 5 0 9 -4 9 -9z"/>
</g>
</svg>
